<?xml version="1.0" encoding="utf-8"?>
<!-- Generator: Adobe Illustrator 14.0.0, SVG Export Plug-In . SVG Version: 6.00 Build 43363)  -->
<!DOCTYPE svg PUBLIC "-//W3C//DTD SVG 1.1//EN" "http://www.w3.org/Graphics/SVG/1.1/DTD/svg11.dtd">
<svg width="73" height="73" xmlns="http://www.w3.org/2000/svg" xmlns:svg="http://www.w3.org/2000/svg">
 <g>
  <title>Layer 1</title>
  <path id="svg_1" d="m36.4834,0.37207c-19.883,0 -36,16.118 -36,36s16.117,36 36,36c19.882,0 36,-16.118 36,-36s-16.119,-36 -36,-36" fill="#FFFFFF" clip-rule="evenodd" fill-rule="evenodd"/>
  <path id="svg_2" d="m36.4834,29.95307c3.545,0 6.42,2.874 6.42,6.42c0,3.545 -2.875,6.42 -6.42,6.42c-3.546,0 -6.42,-2.875 -6.42,-6.42c0,-3.546 2.874,-6.42 6.42,-6.42m0,-7.462c7.666,0 13.881,6.215 13.881,13.882c0,2.202 -0.514,4.285 -1.427,6.135l0.432,-0.269c0,0 -0.994,2.771 -0.497,4.762s0.497,4.478 0.497,4.478s-0.497,-0.498 -2.279,-1.225c-1.249,-0.509 -5.949,-0.305 -8.655,-0.137c-0.638,0.09 -1.289,0.137 -1.951,0.137l0,0c-7.667,0 -13.882,-6.215 -13.882,-13.881c-0.001,-7.668 6.214,-13.882 13.881,-13.882zm0,-9.318c12.812,0 23.198,10.387 23.198,23.199l0,18.09c0,2.821 -2.287,5.108 -5.108,5.108c-2.457,0 -4.509,-1.734 -4.998,-4.046c-3.726,2.553 -8.234,4.046 -13.092,4.046c-12.813,0.001 -23.2,-10.386 -23.2,-23.198c0,-12.812 10.387,-23.199 23.2,-23.199z" fill="#6ACFE8" clip-rule="evenodd" fill-rule="evenodd"/>
 </g>
</svg>
